<?xml version="1.0" encoding="UTF-8" standalone="no"?>
<svg viewBox="0 0 50 50"
 xmlns="http://www.w3.org/2000/svg" xmlns:xlink="http://www.w3.org/1999/xlink"  version="1.2" baseProfile="tiny">
<title>Qt SVG Document</title>
<desc>Generated with Qt</desc>
<defs>
</defs>
<g fill="none" stroke="black" stroke-width="1" fill-rule="evenodd" stroke-linecap="square" stroke-linejoin="bevel" >

<g fill="none" stroke="none" transform="matrix(2.27273,0,0,2.27273,206.244,-682.675)"
font-family="Noto Sans" font-size="10" font-weight="400" font-style="normal" 
opacity="0.393" >
<rect x="-90.7472" y="300.377" width="22" height="22"/>
</g>

<g fill="#303030" fill-opacity="1" stroke="none" transform="matrix(2.27273,0,0,2.27273,206.244,-682.675)"
font-family="Noto Sans" font-size="10" font-weight="400" font-style="normal" 
>
<rect x="-80.7472" y="314.377" width="5" height="1"/>
</g>

<g fill="#303030" fill-opacity="1" stroke="none" transform="matrix(0,2.27273,-2.27273,0,206.244,-682.675)"
font-family="Noto Sans" font-size="10" font-weight="400" font-style="normal" 
>
<rect x="309.377" y="75.7472" width="5" height="1"/>
</g>

<g fill="#000000" fill-opacity="1" stroke="none" transform="matrix(2.27273,0,0,2.27273,206.244,-682.675)"
font-family="Noto Sans" font-size="10" font-weight="400" font-style="normal" 
>
<rect x="-82.7472" y="308.377" width="6" height="1"/>
</g>

<g fill="#000000" fill-opacity="1" stroke="none" transform="matrix(2.27273,0,0,2.27273,206.244,-682.675)"
font-family="Noto Sans" font-size="10" font-weight="400" font-style="normal" 
>
<rect x="-82.7472" y="309.377" width="1" height="4"/>
</g>

<g fill="#000000" fill-opacity="1" stroke="none" transform="matrix(2.27273,0,0,2.27273,206.244,-682.675)"
font-family="Noto Sans" font-size="10" font-weight="400" font-style="normal" 
>
<rect x="-82.7472" y="313.377" width="6" height="1"/>
</g>

<g fill="#000000" fill-opacity="1" stroke="none" transform="matrix(2.27273,0,0,2.27273,206.244,-682.675)"
font-family="Noto Sans" font-size="10" font-weight="400" font-style="normal" 
>
<rect x="-77.7472" y="309.377" width="1" height="4"/>
</g>

<g fill="none" stroke="#000000" stroke-opacity="1" stroke-width="1" stroke-linecap="square" stroke-linejoin="bevel" transform="matrix(1,0,0,1,0,0)"
font-family="Noto Sans" font-size="10" font-weight="400" font-style="normal" 
>
</g>
</g>
</svg>
