<?xml version="1.0" encoding="UTF-8" standalone="no"?>
<svg viewBox="0 0 50 50"
 xmlns="http://www.w3.org/2000/svg" xmlns:xlink="http://www.w3.org/1999/xlink"  version="1.2" baseProfile="tiny">
<title>Qt SVG Document</title>
<desc>Generated with Qt</desc>
<defs>
</defs>
<g fill="none" stroke="black" stroke-width="1" fill-rule="evenodd" stroke-linecap="square" stroke-linejoin="bevel" >

<g fill="#a19a7a" fill-opacity="1" stroke="none" transform="matrix(2.27273,0,0,2.27273,-124.894,-906.665)"
font-family="Noto Sans" font-size="10" font-weight="400" font-style="normal" 
>
<rect x="54.9533" y="398.933" width="22" height="22"/>
</g>

<g fill="#000000" fill-opacity="1" stroke="none" transform="matrix(2.27273,0,0,2.27273,-124.894,-906.665)"
font-family="Noto Sans" font-size="10" font-weight="400" font-style="normal" 
>
<rect x="63.9528" y="407.933" width="6" height="1"/>
</g>

<g fill="#000000" fill-opacity="1" stroke="none" transform="matrix(2.27273,0,0,2.27273,-124.894,-906.665)"
font-family="Noto Sans" font-size="10" font-weight="400" font-style="normal" 
>
<rect x="63.9528" y="408.933" width="1" height="4"/>
</g>

<g fill="#000000" fill-opacity="1" stroke="none" transform="matrix(2.27273,0,0,2.27273,-124.894,-906.665)"
font-family="Noto Sans" font-size="10" font-weight="400" font-style="normal" 
>
<rect x="63.9528" y="412.933" width="6" height="1"/>
</g>

<g fill="#000000" fill-opacity="1" stroke="none" transform="matrix(2.27273,0,0,2.27273,-124.894,-906.665)"
font-family="Noto Sans" font-size="10" font-weight="400" font-style="normal" 
>
<rect x="68.9528" y="408.933" width="1" height="4"/>
</g>

<g fill="#dad7ca" fill-opacity="1" stroke="none" transform="matrix(2.27273,0,0,2.27273,-121.132,-907.269)"
font-family="Noto Sans" font-size="10" font-weight="400" font-style="normal" 
>
<rect x="54.2983" y="420.198" width="21" height="1"/>
</g>

<g fill="#36342a" fill-opacity="1" stroke="none" transform="matrix(2.27273,0,0,2.27273,-121.132,-907.269)"
font-family="Noto Sans" font-size="10" font-weight="400" font-style="normal" 
>
<rect x="53.2983" y="399.198" width="22" height="1"/>
</g>

<g fill="#36342a" fill-opacity="1" stroke="none" transform="matrix(2.27273,0,0,2.27273,-121.132,-907.269)"
font-family="Noto Sans" font-size="10" font-weight="400" font-style="normal" 
>
<rect x="53.2983" y="400.198" width="1" height="21"/>
</g>

<g fill="#dad7ca" fill-opacity="1" stroke="none" transform="matrix(2.27273,0,0,2.27273,-121.132,-907.269)"
font-family="Noto Sans" font-size="10" font-weight="400" font-style="normal" 
>
<rect x="74.2983" y="400.198" width="1" height="20"/>
</g>

<g fill="#5b5746" fill-opacity="1" stroke="none" transform="matrix(2.27273,0,0,2.27273,-121.132,-907.269)"
font-family="Noto Sans" font-size="10" font-weight="400" font-style="normal" 
>
<rect x="54.2983" y="400.198" width="1" height="20"/>
</g>

<g fill="#5b5746" fill-opacity="1" stroke="none" transform="matrix(2.27273,0,0,2.27273,-121.132,-907.269)"
font-family="Noto Sans" font-size="10" font-weight="400" font-style="normal" 
>
<rect x="55.2983" y="400.198" width="19" height="1"/>
</g>

<g fill="none" stroke="#000000" stroke-opacity="1" stroke-width="1" stroke-linecap="square" stroke-linejoin="bevel" transform="matrix(1,0,0,1,0,0)"
font-family="Noto Sans" font-size="10" font-weight="400" font-style="normal" 
>
</g>
</g>
</svg>
