<?xml version="1.0" encoding="UTF-8" standalone="no"?>
<svg viewBox="0 0 50 50"
 xmlns="http://www.w3.org/2000/svg" xmlns:xlink="http://www.w3.org/1999/xlink"  version="1.2" baseProfile="tiny">
<title>Qt SVG Document</title>
<desc>Generated with Qt</desc>
<defs>
</defs>
<g fill="none" stroke="black" stroke-width="1" fill-rule="evenodd" stroke-linecap="square" stroke-linejoin="bevel" >

<g fill="#a19a7a" fill-opacity="1" stroke="none" transform="matrix(2.27273,0,0,2.27273,-123.245,-816.159)"
font-family="Noto Sans" font-size="10" font-weight="400" font-style="normal" 
>
<rect x="54.2279" y="359.11" width="22" height="22"/>
</g>

<g fill="#303030" fill-opacity="1" stroke="none" transform="matrix(2.27273,0,0,2.27273,-123.245,-816.159)"
font-family="Noto Sans" font-size="10" font-weight="400" font-style="normal" 
>
<rect x="64.2279" y="373.11" width="5" height="1"/>
</g>

<g fill="#303030" fill-opacity="1" stroke="none" transform="matrix(0,2.27273,-2.27273,0,-123.245,-816.159)"
font-family="Noto Sans" font-size="10" font-weight="400" font-style="normal" 
>
<rect x="368.11" y="-69.2279" width="5" height="1"/>
</g>

<g fill="#000000" fill-opacity="1" stroke="none" transform="matrix(2.27273,0,0,2.27273,-123.245,-816.159)"
font-family="Noto Sans" font-size="10" font-weight="400" font-style="normal" 
>
<rect x="62.2279" y="367.11" width="6" height="1"/>
</g>

<g fill="#000000" fill-opacity="1" stroke="none" transform="matrix(2.27273,0,0,2.27273,-123.245,-816.159)"
font-family="Noto Sans" font-size="10" font-weight="400" font-style="normal" 
>
<rect x="62.2279" y="368.11" width="1" height="4"/>
</g>

<g fill="#000000" fill-opacity="1" stroke="none" transform="matrix(2.27273,0,0,2.27273,-123.245,-816.159)"
font-family="Noto Sans" font-size="10" font-weight="400" font-style="normal" 
>
<rect x="62.2279" y="372.11" width="6" height="1"/>
</g>

<g fill="#000000" fill-opacity="1" stroke="none" transform="matrix(2.27273,0,0,2.27273,-123.245,-816.159)"
font-family="Noto Sans" font-size="10" font-weight="400" font-style="normal" 
>
<rect x="67.2279" y="368.11" width="1" height="4"/>
</g>

<g fill="#dad7ca" fill-opacity="1" stroke="none" transform="matrix(2.27273,0,0,2.27273,-123.245,-816.159)"
font-family="Noto Sans" font-size="10" font-weight="400" font-style="normal" 
>
<rect x="55.2279" y="380.11" width="21" height="1"/>
</g>

<g fill="#5b5746" fill-opacity="1" stroke="none" transform="matrix(2.27273,0,0,2.27273,-123.245,-816.159)"
font-family="Noto Sans" font-size="10" font-weight="400" font-style="normal" 
>
<rect x="54.2279" y="359.11" width="22" height="1"/>
</g>

<g fill="#5b5746" fill-opacity="1" stroke="none" transform="matrix(2.27273,0,0,2.27273,-123.245,-816.159)"
font-family="Noto Sans" font-size="10" font-weight="400" font-style="normal" 
>
<rect x="54.2279" y="360.11" width="1" height="21"/>
</g>

<g fill="#dad7ca" fill-opacity="1" stroke="none" transform="matrix(2.27273,0,0,2.27273,-123.245,-816.159)"
font-family="Noto Sans" font-size="10" font-weight="400" font-style="normal" 
>
<rect x="75.2279" y="360.11" width="1" height="20"/>
</g>

<g fill="none" stroke="#000000" stroke-opacity="1" stroke-width="1" stroke-linecap="square" stroke-linejoin="bevel" transform="matrix(1,0,0,1,0,0)"
font-family="Noto Sans" font-size="10" font-weight="400" font-style="normal" 
>
</g>
</g>
</svg>
