<?xml version="1.0" encoding="UTF-8" standalone="no"?>
<svg viewBox="0 0 50 50"
 xmlns="http://www.w3.org/2000/svg" xmlns:xlink="http://www.w3.org/1999/xlink"  version="1.2" baseProfile="tiny">
<title>Qt SVG Document</title>
<desc>Generated with Qt</desc>
<defs>
</defs>
<g fill="none" stroke="black" stroke-width="1" fill-rule="evenodd" stroke-linecap="square" stroke-linejoin="bevel" >

<g fill="#a19a7a" fill-opacity="1" stroke="none" transform="matrix(2.27273,0,0,2.27273,178.998,-2491.51)"
font-family="Noto Sans" font-size="10" font-weight="400" font-style="normal" 
>
<rect x="-78.7591" y="1096.27" width="22" height="22"/>
</g>

<g fill="#303030" fill-opacity="1" stroke="none" transform="matrix(2.27273,0,0,2.27273,178.998,-2491.51)"
font-family="Noto Sans" font-size="10" font-weight="400" font-style="normal" 
>
<rect x="-72.7591" y="1114.27" width="13" height="1"/>
</g>

<g fill="#303030" fill-opacity="1" stroke="none" transform="matrix(0,2.27273,-2.27273,0,178.998,-2491.51)"
font-family="Noto Sans" font-size="10" font-weight="400" font-style="normal" 
>
<rect x="1101.27" y="59.7591" width="13" height="1"/>
</g>

<g fill="#000000" fill-opacity="1" stroke="none" transform="matrix(2.27273,0,0,2.27273,178.998,-2491.51)"
font-family="Noto Sans" font-size="10" font-weight="400" font-style="normal" 
>
<rect x="-74.7591" y="1099.27" width="14" height="1"/>
</g>

<g fill="#000000" fill-opacity="1" stroke="none" transform="matrix(2.27273,0,0,2.27273,178.998,-2491.51)"
font-family="Noto Sans" font-size="10" font-weight="400" font-style="normal" 
>
<rect x="-74.7591" y="1100.27" width="1" height="13"/>
</g>

<g fill="#000000" fill-opacity="1" stroke="none" transform="matrix(2.27273,0,0,2.27273,178.998,-2491.51)"
font-family="Noto Sans" font-size="10" font-weight="400" font-style="normal" 
>
<rect x="-74.7591" y="1113.27" width="13" height="1"/>
</g>

<g fill="#000000" fill-opacity="1" stroke="none" transform="matrix(2.27273,0,0,2.27273,178.998,-2491.51)"
font-family="Noto Sans" font-size="10" font-weight="400" font-style="normal" 
>
<rect x="-61.7591" y="1100.27" width="1" height="14"/>
</g>

<g fill="#dad7ca" fill-opacity="1" stroke="none" transform="matrix(2.27273,0,0,2.27273,19.6465,-2474.61)"
font-family="Noto Sans" font-size="10" font-weight="400" font-style="normal" 
>
<rect x="-7.64446" y="1109.83" width="21" height="1"/>
</g>

<g fill="#5b5746" fill-opacity="1" stroke="none" transform="matrix(2.27273,0,0,2.27273,19.6465,-2474.61)"
font-family="Noto Sans" font-size="10" font-weight="400" font-style="normal" 
>
<rect x="-8.64446" y="1088.83" width="22" height="1"/>
</g>

<g fill="#5b5746" fill-opacity="1" stroke="none" transform="matrix(2.27273,0,0,2.27273,19.6465,-2474.61)"
font-family="Noto Sans" font-size="10" font-weight="400" font-style="normal" 
>
<rect x="-8.64446" y="1089.83" width="1" height="21"/>
</g>

<g fill="#dad7ca" fill-opacity="1" stroke="none" transform="matrix(2.27273,0,0,2.27273,19.6465,-2474.61)"
font-family="Noto Sans" font-size="10" font-weight="400" font-style="normal" 
>
<rect x="12.3555" y="1089.83" width="1" height="20"/>
</g>

<g fill="none" stroke="#000000" stroke-opacity="1" stroke-width="1" stroke-linecap="square" stroke-linejoin="bevel" transform="matrix(1,0,0,1,0,0)"
font-family="Noto Sans" font-size="10" font-weight="400" font-style="normal" 
>
</g>
</g>
</svg>
