<?xml version="1.0" encoding="UTF-8" standalone="no"?>
<svg viewBox="0 0 50 50"
 xmlns="http://www.w3.org/2000/svg" xmlns:xlink="http://www.w3.org/1999/xlink"  version="1.2" baseProfile="tiny">
<title>Qt SVG Document</title>
<desc>Generated with Qt</desc>
<defs>
</defs>
<g fill="none" stroke="black" stroke-width="1" fill-rule="evenodd" stroke-linecap="square" stroke-linejoin="bevel" >

<g fill="#a19a7a" fill-opacity="1" stroke="none" transform="matrix(2.27273,0,0,2.27272,-45.7114,-2328.93)"
font-family="Noto Sans" font-size="10" font-weight="400" font-style="normal" 
>
<rect x="20.113" y="1024.73" width="22" height="22"/>
</g>

<g fill="#000000" fill-opacity="1" stroke="none" transform="matrix(2.27273,0,0,2.27272,-45.7114,-2328.93)"
font-family="Noto Sans" font-size="10" font-weight="400" font-style="normal" 
>
<rect x="25.1126" y="1039.73" width="14" height="1"/>
</g>

<g fill="#000000" fill-opacity="1" stroke="none" transform="matrix(2.27273,0,0,2.27272,-45.7114,-2328.93)"
font-family="Noto Sans" font-size="10" font-weight="400" font-style="normal" 
>
<rect x="25.1126" y="1040.73" width="1" height="2"/>
</g>

<g fill="#000000" fill-opacity="1" stroke="none" transform="matrix(2.27273,0,0,2.27272,-45.7114,-2328.93)"
font-family="Noto Sans" font-size="10" font-weight="400" font-style="normal" 
>
<rect x="25.1126" y="1042.73" width="13" height="1"/>
</g>

<g fill="#000000" fill-opacity="1" stroke="none" transform="matrix(2.27273,0,0,2.27272,-45.7114,-2328.93)"
font-family="Noto Sans" font-size="10" font-weight="400" font-style="normal" 
>
<rect x="38.1126" y="1040.73" width="1" height="3"/>
</g>

<g fill="#dad7ca" fill-opacity="1" stroke="none" transform="matrix(2.27273,0,0,2.27272,42.3236,-2336.1)"
font-family="Noto Sans" font-size="10" font-weight="400" font-style="normal" 
>
<rect x="-17.6224" y="1048.89" width="21" height="1"/>
</g>

<g fill="#36342a" fill-opacity="1" stroke="none" transform="matrix(2.27273,0,0,2.27272,42.3236,-2336.1)"
font-family="Noto Sans" font-size="10" font-weight="400" font-style="normal" 
>
<rect x="-18.6224" y="1027.89" width="22" height="1"/>
</g>

<g fill="#36342a" fill-opacity="1" stroke="none" transform="matrix(2.27273,0,0,2.27272,42.3236,-2336.1)"
font-family="Noto Sans" font-size="10" font-weight="400" font-style="normal" 
>
<rect x="-18.6224" y="1028.89" width="1" height="21"/>
</g>

<g fill="#dad7ca" fill-opacity="1" stroke="none" transform="matrix(2.27273,0,0,2.27272,42.3236,-2336.1)"
font-family="Noto Sans" font-size="10" font-weight="400" font-style="normal" 
>
<rect x="2.3776" y="1028.89" width="1" height="20"/>
</g>

<g fill="#5b5746" fill-opacity="1" stroke="none" transform="matrix(2.27273,0,0,2.27272,42.3236,-2336.1)"
font-family="Noto Sans" font-size="10" font-weight="400" font-style="normal" 
>
<rect x="-17.6224" y="1028.89" width="1" height="20"/>
</g>

<g fill="#5b5746" fill-opacity="1" stroke="none" transform="matrix(2.27273,0,0,2.27272,42.3236,-2336.1)"
font-family="Noto Sans" font-size="10" font-weight="400" font-style="normal" 
>
<rect x="-16.6224" y="1028.89" width="19" height="1"/>
</g>

<g fill="none" stroke="#000000" stroke-opacity="1" stroke-width="1" stroke-linecap="square" stroke-linejoin="bevel" transform="matrix(1,0,0,1,0,0)"
font-family="Noto Sans" font-size="10" font-weight="400" font-style="normal" 
>
</g>
</g>
</svg>
